PathFileType	4	(X/Y/Z)	C:/Users/opensim2020/Desktop/walking_exp_matlab/subject06_walking22_straight_04.trc	
DataRate	CameraRate	NumFrames	NumMarkers	Units	OrigDataRate	OrigDataStartFrame	OrigNumFrames	
100.00	100.00	6	44	mm	100.00	2277	102	
Frame#	Time	LFHD			RFHD			LBHD			RBHD			C7			T10			CLAV			STRN			RBAK			LSHO			LUPA			LELB			LFRM			LWRA			LWRB			LFIN			RSHO			RUPA			RELB			RFRM			RWRA			RWRB			RFIN			LASI			RASI			LPSI			RPSI			LTHI			LKNE			LTIB			LANK			LHEE			LTOE			RTHI			RKNE			RTIB			RANK			RHEE			RTOE			*39			*40			*41			*42			*43			
		X1	Y1	Z1	X2	Y2	Z2	X3	Y3	Z3	X4	Y4	Z4	X5	Y5	Z5	X6	Y6	Z6	X7	Y7	Z7	X8	Y8	Z8	X9	Y9	Z9	X10	Y10	Z10	X11	Y11	Z11	X12	Y12	Z12	X13	Y13	Z13	X14	Y14	Z14	X15	Y15	Z15	X16	Y16	Z16	X17	Y17	Z17	X18	Y18	Z18	X19	Y19	Z19	X20	Y20	Z20	X21	Y21	Z21	X22	Y22	Z22	X23	Y23	Z23	X24	Y24	Z24	X25	Y25	Z25	X26	Y26	Z26	X27	Y27	Z27	X28	Y28	Z28	X29	Y29	Z29	X30	Y30	Z30	X31	Y31	Z31	X32	Y32	Z32	X33	Y33	Z33	X34	Y34	Z34	X35	Y35	Z35	X36	Y36	Z36	X37	Y37	Z37	X38	Y38	Z38	X39	Y39	Z39	X40	Y40	Z40	X41	Y41	Z41	X42	Y42	Z42	X43	Y43	Z43	X44	Y44	Z44	

90	0.890	-895.97675	-547.62128	1653.48340	-1025.30652	-574.30298	1650.44177	-927.23059	-413.23184	1611.92273	-1053.95166	-442.06750	1613.52332	-981.87128	-414.29443	1452.21997	-990.30896	-382.17355	1121.47278	-976.04028	-525.06604	1375.51257	-967.53485	-565.19269	1202.28564	-1063.91467	-344.88406	1281.50342	-817.46155	-458.51059	1405.85693	-749.46216	-448.42694	1202.67126	-743.23438	-445.08099	1088.84143	-722.00970	-491.35379	945.38245	-757.92755	-580.53406	849.91949	-731.92633	-518.09674	828.75970	-724.37701	-578.02936	761.44965	-1138.86853	-483.80899	1409.14063	-1238.91895	-433.81009	1222.02588	-1259.15613	-434.98376	1101.25623	-1277.57605	-464.92688	986.04285	-1241.80969	-543.62372	859.66571	-1284.46765	-492.44730	851.09998	-1282.70752	-541.84406	782.39301	-877.68945	-559.25226	963.97003	-1096.60352	-567.60486	975.52814	-907.87555	-402.52032	983.17682	-1074.78711	-412.96362	996.55383	-825.00275	-567.44696	650.19086	-850.13293	-626.42908	499.02542	-866.48956	-518.02899	272.81479	-909.91296	-457.36441	112.33327	-961.22314	-421.10300	104.32715	-891.96790	-584.95709	55.00508	-1155.01147	-520.77960	637.79382	-1131.97852	-527.24042	511.35599	-1129.75793	-445.60303	253.24219	-1081.14807	-403.80841	73.16422	-1035.44482	-363.53989	50.92701	-1089.74194	-553.76135	30.77113	-971.36658	-465.45630	1704.40247												 
91	0.900	-894.16016	-560.99677	1652.37756	-1023.41431	-588.16321	1649.74109	-926.25604	-426.57355	1611.21729	-1052.95349	-456.04370	1613.22961	-981.50555	-427.72812	1451.63611	-989.90643	-394.47171	1121.26782	-975.19159	-538.35840	1374.84143	-967.24408	-578.11310	1201.47375	-1064.39392	-357.99396	1281.47070	-816.77649	-471.47388	1404.88977	-749.30237	-458.70795	1201.59290	-743.17786	-453.32959	1087.95300	-721.71680	-494.81033	942.89044	-755.87170	-581.16278	844.63947	-731.20288	-517.58398	825.45544	-722.35120	-574.88885	756.28516	-1138.04614	-497.77634	1408.95093	-1239.09399	-450.48581	1221.67603	-1259.20703	-453.64005	1100.95032	-1277.02075	-487.51880	986.96167	-1239.69019	-570.33295	863.80896	-1283.00208	-520.15045	853.25092	-1280.22058	-571.89563	786.32086	-877.92969	-572.25372	963.46582	-1097.01135	-579.33136	974.69531	-906.98566	-415.48547	982.85669	-1073.87219	-424.72540	996.00513	-823.43134	-582.47717	651.12970	-848.87732	-643.46295	500.57446	-865.15094	-547.94153	267.42123	-908.73358	-498.39581	103.27205	-960.24023	-463.30118	92.87285	-889.26703	-629.15112	54.76792	-1154.87537	-527.06097	637.03217	-1132.33813	-532.77435	510.16919	-1129.05737	-447.42389	253.12555	-1080.75183	-404.15436	73.24914	-1035.00000	-363.69543	50.99338	-1089.84216	-553.70398	30.76771	-969.79651	-479.17841	1703.79382												 
92	0.910	-892.26245	-574.19183	1651.12756	-1021.48175	-602.02887	1648.68469	-925.25073	-439.78766	1610.35974	-1051.75769	-470.10098	1612.47095	-980.84924	-441.00275	1450.96301	-989.38159	-407.28113	1120.50305	-974.33997	-551.55499	1373.83899	-966.89941	-591.09302	1200.41101	-1064.64685	-371.22034	1281.02612	-816.00287	-484.44193	1403.54443	-749.00073	-469.15128	1200.29578	-743.13287	-461.43887	1086.86804	-720.91711	-498.50812	940.68262	-753.63879	-581.75824	839.42169	-730.41632	-517.11890	822.31140	-720.46924	-571.77887	751.29230	-1137.18738	-511.61908	1408.41003	-1239.01953	-466.95157	1220.88989	-1259.21667	-472.17761	1100.41248	-1276.31885	-509.95810	987.74933	-1237.39917	-596.66492	867.83032	-1281.41577	-547.67413	855.41766	-1277.81641	-601.95117	790.65265	-878.02264	-585.38672	962.69666	-1097.18335	-590.95001	973.35205	-906.00476	-428.25711	982.19720	-1072.92236	-436.60077	995.23834	-821.89526	-597.25909	651.57550	-847.61993	-659.42889	501.49991	-863.67767	-578.05084	262.21118	-907.27600	-540.06860	94.97072	-959.21167	-506.25992	82.29188	-886.70398	-673.76465	55.20694	-1154.28479	-534.33856	635.91205	-1132.29309	-537.86438	508.89743	-1128.46545	-449.39709	252.86307	-1080.34229	-404.39935	73.39022	-1034.61584	-363.54218	51.53688	-1089.91626	-553.77032	30.72658	-968.29150	-492.93921	1702.80676												 
93	0.920	-890.40826	-587.42572	1649.43518	-1019.47473	-615.84906	1647.32239	-924.03070	-453.11963	1608.95703	-1050.45703	-483.89230	1611.56482	-979.90247	-454.29291	1449.60510	-988.69763	-419.86615	1119.50977	-973.34912	-564.80615	1372.61218	-966.43396	-604.06555	1199.07703	-1064.69128	-384.58884	1280.48083	-815.09271	-497.30255	1401.97107	-748.55731	-479.66330	1198.78076	-742.79156	-469.94736	1085.56458	-720.11926	-501.91455	938.29010	-751.53705	-582.37152	834.25195	-729.53516	-516.77063	819.35321	-718.34979	-568.69739	746.56769	-1136.22729	-525.37000	1407.61670	-1238.64514	-483.00555	1219.78491	-1259.11279	-490.60123	1099.63721	-1275.51978	-532.19775	988.47998	-1235.06274	-622.70746	872.08923	-1279.63843	-574.71637	857.76843	-1275.04077	-631.24005	794.99762	-878.02222	-598.52820	961.54114	-1096.89832	-602.27924	971.62799	-905.08826	-441.23236	981.12390	-1072.13184	-448.44775	994.08093	-820.49829	-611.47284	651.48627	-846.44214	-674.64618	501.78903	-862.15619	-608.09424	257.21387	-905.73914	-582.46326	87.67570	-956.92322	-548.75159	73.48441	-884.05713	-718.55194	56.14986	-1153.69104	-541.83160	634.70447	-1131.95154	-542.91162	507.56091	-1127.73425	-451.78528	252.53680	-1079.90063	-404.73218	73.53667	-1033.92639	-363.98096	51.45507	-1090.00684	-553.78668	30.71075	-966.64319	-506.61920	1701.48474												 
94	0.930	-888.48492	-600.66235	1647.72217	-1017.35327	-629.55817	1645.75439	-922.79272	-466.31763	1607.43286	-1049.13062	-497.75864	1610.27209	-978.75385	-467.53030	1448.05396	-988.03955	-432.42706	1118.22070	-972.35516	-577.79510	1371.01465	-965.87128	-617.12207	1197.50500	-1064.58984	-397.83975	1279.21655	-814.12030	-510.25604	1400.12415	-747.92804	-490.21796	1197.03064	-742.31104	-478.52884	1084.09680	-719.31512	-505.78702	935.94830	-749.39917	-582.98962	829.18756	-728.51508	-516.49817	816.62463	-716.71338	-565.92291	741.90692	-1135.15601	-538.93420	1406.56897	-1238.58887	-499.74042	1218.61230	-1258.88147	-508.80685	1098.72205	-1274.50757	-554.12036	989.15808	-1232.68396	-648.29669	876.47784	-1277.74670	-601.22266	860.30963	-1272.28589	-660.20459	799.71619	-877.83783	-611.82074	960.21417	-1096.94482	-614.39337	970.01624	-904.08356	-454.14310	979.66736	-1071.26367	-460.38290	992.60046	-819.52722	-624.91034	650.37305	-845.28406	-689.65710	501.70169	-860.71735	-637.86127	252.85782	-903.99866	-624.61371	81.59241	-958.33588	-595.11353	63.80782	-881.61389	-761.88953	56.85123	-1152.89551	-550.69867	632.99677	-1131.58167	-548.68390	506.12701	-1127.00269	-454.70523	252.10410	-1079.19971	-404.86136	73.85852	-1033.55469	-363.66586	52.39787	-1090.05310	-553.86249	30.68868	-964.92010	-520.17529	1699.96265												 
95	0.940	-886.33032	-613.62341	1645.55127	-1015.22345	-643.28247	1643.99731	-921.51727	-479.49481	1605.62891	-1047.68689	-511.48489	1608.69775	-977.58844	-480.86484	1446.30627	-987.14441	-444.98871	1116.52026	-971.15778	-590.93707	1369.27368	-965.19629	-630.05963	1195.69592	-1064.55212	-411.05569	1277.65222	-813.07477	-523.03766	1397.99609	-747.20441	-500.84235	1195.08862	-741.76740	-487.10098	1082.37292	-718.43469	-509.86078	933.68262	-747.35480	-583.63373	824.17139	-727.31329	-516.63440	813.88721	-714.74268	-563.14404	737.58624	-1134.02332	-552.46216	1405.27100	-1237.81982	-515.71307	1216.96704	-1258.47949	-526.83441	1097.62976	-1273.44214	-575.60083	989.78363	-1230.22437	-673.40961	881.02954	-1275.58508	-627.42090	863.05945	-1269.52393	-688.63190	804.68018	-877.61023	-625.22620	958.70447	-1096.78467	-626.35321	968.07062	-903.08704	-467.25839	977.84290	-1070.42725	-472.39642	990.87628	-818.27643	-638.50629	649.39020	-844.17474	-704.25208	501.05057	-859.04681	-667.37128	248.91342	-901.95721	-666.53320	76.91036	-956.69208	-638.50049	57.61258	-879.21124	-805.57727	58.63376	-1151.98071	-559.19336	631.78284	-1131.06909	-555.06451	504.57611	-1126.22986	-457.86838	251.64127	-1078.73376	-405.96097	73.88910	-1032.91956	-364.07098	52.92989	-1090.04932	-553.88062	30.66097	-963.10529	-533.67987	1698.12170												 
